<svg xmlns="http://www.w3.org/2000/svg" viewBox="0 0 1600 900"><defs><linearGradient id="s" x1="0" x2="1"><stop stop-color="#07131a"/><stop offset=".72" stop-color="#285666"/><stop offset="1" stop-color="#050606"/></linearGradient><radialGradient id="f"><stop stop-color="#d7eced" stop-opacity=".8"/><stop offset="1" stop-color="#d7eced" stop-opacity="0"/></radialGradient></defs><rect width="1600" height="900" fill="url(#s)"/><path d="M0 610c280-150 425 40 660-70 220-103 350-68 600 42 94 41 192 31 340-4v322H0z" fill="#153c48"/><path d="M0 670c340-120 430 43 680-50 264-98 486 58 755 16" fill="none" stroke="#dfe9e5" stroke-opacity=".42" stroke-width="28"/><ellipse cx="1360" cy="550" rx="340" ry="260" fill="url(#f)"/><path d="M1390 0h210v900h-310l50-120-66-96 82-108-64-122 80-118-54-116z" fill="#08090a" opacity=".92"/></svg>
